<?xml version="1.0" encoding="UTF-8"?>
<!DOCTYPE svg PUBLIC "-//W3C//DTD SVG 1.1//EN" "http://www.w3.org/Graphics/SVG/1.1/DTD/svg11.dtd">
<svg xmlns="http://www.w3.org/2000/svg" version="1.1" width="723px" height="451px" style="shape-rendering:geometricPrecision; text-rendering:geometricPrecision; image-rendering:optimizeQuality; fill-rule:evenodd; clip-rule:evenodd" xmlns:xlink="http://www.w3.org/1999/xlink">
<g><path style="opacity:1" fill="#fefefe" d="M -0.5,-0.5 C 240.5,-0.5 481.5,-0.5 722.5,-0.5C 722.5,149.833 722.5,300.167 722.5,450.5C 481.5,450.5 240.5,450.5 -0.5,450.5C -0.5,300.167 -0.5,149.833 -0.5,-0.5 Z"/></g>
<g><path style="opacity:1" fill="#1b544e" d="M 479.5,98.5 C 486.167,98.5 492.833,98.5 499.5,98.5C 499.17,117.008 499.503,135.341 500.5,153.5C 501.167,153.833 501.833,154.167 502.5,154.5C 502.5,155.5 502.5,156.5 502.5,157.5C 505.555,158.036 508.555,158.869 511.5,160C 512.833,160.667 512.833,161.333 511.5,162C 512.833,162.333 514.167,162.667 515.5,163C 515.167,163.333 514.833,163.667 514.5,164C 516.785,165.954 518.952,165.787 521,163.5C 521.249,164.624 521.749,165.624 522.5,166.5C 526.471,168.003 530.305,169.67 534,171.5C 535.558,170.655 536.558,171.321 537,173.5C 539.089,173.255 541.089,173.255 543,173.5C 543.167,173.833 543.333,174.167 543.5,174.5C 541.187,175.273 538.854,175.94 536.5,176.5C 535.904,177.716 535.737,179.049 536,180.5C 533.281,179.556 530.448,179.223 527.5,179.5C 527.785,181.288 527.452,182.955 526.5,184.5C 522.23,182.606 517.897,180.772 513.5,179C 514.34,177.334 513.84,177.167 512,178.5C 509.904,177.285 510.071,176.451 512.5,176C 506.449,175.88 500.782,174.713 495.5,172.5C 495.5,170.5 495.5,168.5 495.5,166.5C 498.187,166.664 500.854,166.497 503.5,166C 506.167,165 506.167,164 503.5,163C 496.181,163.284 488.847,163.284 481.5,163C 478.993,162.907 476.826,162.074 475,160.5C 472.956,161.772 471.122,161.439 469.5,159.5C 470.025,158.808 470.692,158.308 471.5,158C 468.854,157.503 466.187,157.336 463.5,157.5C 462.381,155.062 462.381,152.562 463.5,150C 463.197,146.179 461.197,144.846 457.5,146C 457.5,147.667 457.5,149.333 457.5,151C 455.508,151.574 454.008,152.741 453,154.5C 451.47,153.08 449.637,152.08 447.5,151.5C 446.359,150.575 446.359,149.741 447.5,149C 446.333,148.5 445.5,147.667 445,146.5C 441.467,146.811 437.967,146.811 434.5,146.5C 434.5,145.5 434.5,144.5 434.5,143.5C 433.914,143.709 433.414,144.043 433,144.5C 430.834,142.879 428.334,142.045 425.5,142C 423.736,140.331 421.736,139.164 419.5,138.5C 418.264,139.246 416.93,139.579 415.5,139.5C 413.921,137.347 412.588,135.014 411.5,132.5C 411.482,130.627 411.982,130.294 413,131.5C 414.022,130.646 414.855,129.646 415.5,128.5C 412.515,127.582 409.848,126.248 407.5,124.5C 403.817,126.121 403.817,127.455 407.5,128.5C 406.667,128.833 405.833,129.167 405,129.5C 399.976,128.02 394.476,127.187 388.5,127C 389.167,126.667 389.833,126.333 390.5,126C 386.408,125.1 382.575,123.6 379,121.5C 378.691,120.234 378.191,119.067 377.5,118C 378.701,117.097 379.535,115.931 380,114.5C 380.667,117.167 381.333,117.167 382,114.5C 383.269,115.905 383.769,117.571 383.5,119.5C 385.761,120.409 387.928,120.742 390,120.5C 391.115,119 391.948,117.333 392.5,115.5C 389.572,114.516 386.572,114.183 383.5,114.5C 383.5,113.5 383.5,112.5 383.5,111.5C 380.729,111.579 378.063,111.079 375.5,110C 376.833,109.333 376.833,108.667 375.5,108C 373.888,107.28 372.388,107.446 371,108.5C 370.29,107.027 369.124,106.36 367.5,106.5C 367.5,105.167 367.5,103.833 367.5,102.5C 369.924,102.192 372.257,102.526 374.5,103.5C 374.291,104.086 373.957,104.586 373.5,105C 376.354,107.266 378.187,106.766 379,103.5C 379.494,105.134 379.66,106.801 379.5,108.5C 382.794,108.259 385.794,109.092 388.5,111C 392.027,111.808 395.36,111.641 398.5,110.5C 401.749,112.028 405.082,113.361 408.5,114.5C 431.744,124.449 455.077,134.449 478.5,144.5C 479.452,142.955 479.785,141.288 479.5,139.5C 479.5,125.833 479.5,112.167 479.5,98.5 Z"/></g>
<g><path style="opacity:1" fill="#92aeac" d="M 479.5,98.5 C 486.313,97.5088 493.313,97.1755 500.5,97.5C 500.5,116.167 500.5,134.833 500.5,153.5C 499.503,135.341 499.17,117.008 499.5,98.5C 492.833,98.5 486.167,98.5 479.5,98.5 Z"/></g>
<g><path style="opacity:1" fill="#eaf6f5" d="M 479.5,139.5 C 479.785,141.288 479.452,142.955 478.5,144.5C 455.077,134.449 431.744,124.449 408.5,114.5C 410.413,112.878 412.246,111.878 414,111.5C 414.481,113.478 415.647,114.811 417.5,115.5C 419.155,114.612 420.822,114.112 422.5,114C 423.337,115.011 423.67,116.178 423.5,117.5C 427.776,119.679 431.943,121.346 436,122.5C 437,122.167 438,121.833 439,121.5C 439.617,122.449 439.451,123.282 438.5,124C 439.833,124.667 440.833,125.667 441.5,127C 449.274,127.958 456.441,131.124 463,136.5C 463.333,136.167 463.667,135.833 464,135.5C 467.898,137.517 472.065,138.684 476.5,139C 477.126,139.75 477.626,140.584 478,141.5C 478.278,140.584 478.778,139.918 479.5,139.5 Z"/></g>
<g><path style="opacity:1" fill="#1f534e" d="M 398.5,110.5 C 395.36,111.641 392.027,111.808 388.5,111C 385.794,109.092 382.794,108.259 379.5,108.5C 379.66,106.801 379.494,105.134 379,103.5C 378.187,106.766 376.354,107.266 373.5,105C 373.957,104.586 374.291,104.086 374.5,103.5C 372.257,102.526 369.924,102.192 367.5,102.5C 367.5,103.833 367.5,105.167 367.5,106.5C 369.124,106.36 370.29,107.027 371,108.5C 372.388,107.446 373.888,107.28 375.5,108C 376.833,108.667 376.833,109.333 375.5,110C 378.063,111.079 380.729,111.579 383.5,111.5C 383.5,112.5 383.5,113.5 383.5,114.5C 386.572,114.183 389.572,114.516 392.5,115.5C 391.948,117.333 391.115,119 390,120.5C 387.928,120.742 385.761,120.409 383.5,119.5C 383.769,117.571 383.269,115.905 382,114.5C 381.333,117.167 380.667,117.167 380,114.5C 379.535,115.931 378.701,117.097 377.5,118C 378.191,119.067 378.691,120.234 379,121.5C 382.575,123.6 386.408,125.1 390.5,126C 389.833,126.333 389.167,126.667 388.5,127C 394.476,127.187 399.976,128.02 405,129.5C 405.833,129.167 406.667,128.833 407.5,128.5C 403.817,127.455 403.817,126.121 407.5,124.5C 409.848,126.248 412.515,127.582 415.5,128.5C 414.855,129.646 414.022,130.646 413,131.5C 411.982,130.294 411.482,130.627 411.5,132.5C 412.588,135.014 413.921,137.347 415.5,139.5C 397.317,132.271 379.151,124.938 361,117.5C 280.442,151.195 199.942,185.029 119.5,219C 101.833,219.667 84.1667,219.667 66.5,219C 164.167,178 261.833,137 359.5,96C 360.833,95.3333 362.167,95.3333 363.5,96C 375.188,100.846 386.855,105.679 398.5,110.5 Z"/></g>
<g><path style="opacity:1" fill="#fcfae4" d="M 390.5,165.5 C 391.15,165.804 391.817,166.137 392.5,166.5C 393.286,170.819 393.953,175.153 394.5,179.5C 393.352,181.761 392.852,184.095 393,186.5C 394.679,189.699 396.679,190.033 399,187.5C 399.49,188.793 399.657,190.127 399.5,191.5C 397.167,191.5 394.833,191.5 392.5,191.5C 392.826,200.349 392.493,209.016 391.5,217.5C 391.5,207.167 391.5,196.833 391.5,186.5C 382.5,186.5 373.5,186.5 364.5,186.5C 364.5,196.833 364.5,207.167 364.5,217.5C 373.167,217.5 381.833,217.5 390.5,217.5C 386.217,218.827 381.551,219.493 376.5,219.5C 361.887,219.242 347.22,219.076 332.5,219C 331.944,218.617 331.611,218.117 331.5,217.5C 329.856,217.714 328.356,217.38 327,216.5C 326.503,218.81 326.337,221.143 326.5,223.5C 325.022,223.762 323.689,223.429 322.5,222.5C 323.145,219.772 323.979,217.105 325,214.5C 325.414,214.957 325.914,215.291 326.5,215.5C 327.187,213.726 328.02,212.059 329,210.5C 329.5,204.175 329.666,197.842 329.5,191.5C 328.448,191.649 327.448,191.483 326.5,191C 330.446,187.54 330.446,184.04 326.5,180.5C 327.415,179.672 328.081,178.672 328.5,177.5C 329.035,173.482 329.702,169.482 330.5,165.5C 331.303,162.978 332.636,160.978 334.5,159.5C 331.846,167.249 330.846,175.249 331.5,183.5C 340.5,183.5 349.5,183.5 358.5,183.5C 358.5,171.5 358.5,159.5 358.5,147.5C 349.283,147.275 341.616,150.609 335.5,157.5C 335.741,152.405 338.241,148.738 343,146.5C 356.47,145.932 369.97,145.932 383.5,146.5C 383.34,148.199 383.506,149.866 384,151.5C 386.343,153.344 388.51,155.344 390.5,157.5C 390.218,159.987 390.218,162.653 390.5,165.5 Z"/></g>
<g><path style="opacity:1" fill="#aea06d" d="M 381.5,153.5 C 377.217,151.258 372.55,149.925 367.5,149.5C 366.134,155.037 365.467,160.703 365.5,166.5C 366.023,171.875 366.689,177.208 367.5,182.5C 374.822,182.929 381.988,182.263 389,180.5C 389.667,175.833 389.667,171.167 389,166.5C 386.602,163.037 384.768,159.37 383.5,155.5C 386.83,158.168 389.163,161.502 390.5,165.5C 391.307,171.464 391.64,177.464 391.5,183.5C 382.5,183.5 373.5,183.5 364.5,183.5C 364.5,171.5 364.5,159.5 364.5,147.5C 371.128,147.151 376.795,149.151 381.5,153.5 Z"/></g>
<g><path style="opacity:1" fill="#b69e4e" d="M 381.5,153.5 C 382.5,153.833 383.167,154.5 383.5,155.5C 384.768,159.37 386.602,163.037 389,166.5C 389.667,171.167 389.667,175.833 389,180.5C 381.988,182.263 374.822,182.929 367.5,182.5C 366.689,177.208 366.023,171.875 365.5,166.5C 365.467,160.703 366.134,155.037 367.5,149.5C 372.55,149.925 377.217,151.258 381.5,153.5 Z"/></g>
<g><path style="opacity:1" fill="#ab9e6f" d="M 334.5,159.5 C 334.833,159.5 335.167,159.5 335.5,159.5C 335.5,158.833 335.5,158.167 335.5,157.5C 341.616,150.609 349.283,147.275 358.5,147.5C 358.5,159.5 358.5,171.5 358.5,183.5C 349.5,183.5 340.5,183.5 331.5,183.5C 330.846,175.249 331.846,167.249 334.5,159.5 Z"/></g>
<g><path style="opacity:1" fill="#b69e4f" d="M 335.5,159.5 C 338.517,158.745 340.851,156.912 342.5,154C 344.5,152.667 346.5,151.333 348.5,150C 351.351,148.711 354.351,148.211 357.5,148.5C 357.875,159.222 357.375,169.889 356,180.5C 355.5,181 355,181.5 354.5,182C 348.175,182.5 341.842,182.666 335.5,182.5C 335.471,178.895 334.805,175.395 333.5,172C 334.956,167.98 335.622,163.813 335.5,159.5 Z"/></g>
<g><path style="opacity:1" fill="#b79e4e" d="M 331.5,191.5 C 331.5,191.167 331.5,190.833 331.5,190.5C 332.289,190.217 332.956,189.717 333.5,189C 340.5,188.333 347.5,188.333 354.5,189C 355.796,192.909 356.463,197.075 356.5,201.5C 356.333,205.5 356.167,209.5 356,213.5C 355.5,214 355,214.5 354.5,215C 347.5,215.667 340.5,215.667 333.5,215C 332.848,207.068 332.181,199.235 331.5,191.5 Z"/></g>
<g><path style="opacity:1" fill="#aca16b" d="M 391.5,217.5 C 391.167,217.5 390.833,217.5 390.5,217.5C 381.833,217.5 373.167,217.5 364.5,217.5C 364.5,207.167 364.5,196.833 364.5,186.5C 373.5,186.5 382.5,186.5 391.5,186.5C 391.5,196.833 391.5,207.167 391.5,217.5 Z"/></g>
<g><path style="opacity:1" fill="#b79e4e" d="M 367.5,188.5 C 374.175,188.334 380.842,188.5 387.5,189C 388.308,189.308 388.975,189.808 389.5,190.5C 388.53,198.778 388.197,207.111 388.5,215.5C 381.109,215.799 373.776,215.465 366.5,214.5C 365.022,205.701 365.355,197.034 367.5,188.5 Z"/></g>
<g><path style="opacity:1" fill="#20534f" d="M 502.5,154.5 C 553.845,175.895 605.178,197.395 656.5,219C 638.833,219.667 621.167,219.667 603.5,219C 540.629,192.724 477.962,166.224 415.5,139.5C 416.93,139.579 418.264,139.246 419.5,138.5C 421.736,139.164 423.736,140.331 425.5,142C 428.334,142.045 430.834,142.879 433,144.5C 433.414,144.043 433.914,143.709 434.5,143.5C 434.5,144.5 434.5,145.5 434.5,146.5C 437.967,146.811 441.467,146.811 445,146.5C 445.5,147.667 446.333,148.5 447.5,149C 446.359,149.741 446.359,150.575 447.5,151.5C 449.637,152.08 451.47,153.08 453,154.5C 454.008,152.741 455.508,151.574 457.5,151C 457.5,149.333 457.5,147.667 457.5,146C 461.197,144.846 463.197,146.179 463.5,150C 462.381,152.562 462.381,155.062 463.5,157.5C 466.187,157.336 468.854,157.503 471.5,158C 470.692,158.308 470.025,158.808 469.5,159.5C 471.122,161.439 472.956,161.772 475,160.5C 476.826,162.074 478.993,162.907 481.5,163C 488.847,163.284 496.181,163.284 503.5,163C 506.167,164 506.167,165 503.5,166C 500.854,166.497 498.187,166.664 495.5,166.5C 495.5,168.5 495.5,170.5 495.5,172.5C 500.782,174.713 506.449,175.88 512.5,176C 510.071,176.451 509.904,177.285 512,178.5C 513.84,177.167 514.34,177.334 513.5,179C 517.897,180.772 522.23,182.606 526.5,184.5C 527.452,182.955 527.785,181.288 527.5,179.5C 530.448,179.223 533.281,179.556 536,180.5C 535.737,179.049 535.904,177.716 536.5,176.5C 538.854,175.94 541.187,175.273 543.5,174.5C 543.333,174.167 543.167,173.833 543,173.5C 541.089,173.255 539.089,173.255 537,173.5C 536.558,171.321 535.558,170.655 534,171.5C 530.305,169.67 526.471,168.003 522.5,166.5C 521.749,165.624 521.249,164.624 521,163.5C 518.952,165.787 516.785,165.954 514.5,164C 514.833,163.667 515.167,163.333 515.5,163C 514.167,162.667 512.833,162.333 511.5,162C 512.833,161.333 512.833,160.667 511.5,160C 508.555,158.869 505.555,158.036 502.5,157.5C 502.5,156.5 502.5,155.5 502.5,154.5 Z"/></g>
<g><path style="opacity:1" fill="#ab9e6d" d="M 331.5,217.5 C 331.5,208.833 331.5,200.167 331.5,191.5C 332.181,199.235 332.848,207.068 333.5,215C 340.5,215.667 347.5,215.667 354.5,215C 355,214.5 355.5,214 356,213.5C 356.167,209.5 356.333,205.5 356.5,201.5C 356.463,197.075 355.796,192.909 354.5,189C 347.5,188.333 340.5,188.333 333.5,189C 332.956,189.717 332.289,190.217 331.5,190.5C 331.5,189.167 331.5,187.833 331.5,186.5C 340.5,186.5 349.5,186.5 358.5,186.5C 358.5,196.833 358.5,207.167 358.5,217.5C 349.5,217.5 340.5,217.5 331.5,217.5 Z"/></g>
<g><path style="opacity:1" fill="#f4f9f9" d="M 585.5,238.5 C 574.865,237.596 564.198,237.263 553.5,237.5C 553.5,238.5 553.5,239.5 553.5,240.5C 555.786,240.595 557.786,241.262 559.5,242.5C 556.853,243.824 554.186,243.824 551.5,242.5C 548.728,243.026 546.062,243.859 543.5,245C 543.833,245.333 544.167,245.667 544.5,246C 543.679,256.757 543.179,267.59 543,278.5C 540.827,283.98 538.994,288.813 537.5,293C 535.464,293.454 533.63,294.287 532,295.5C 530.527,295.097 529.194,294.43 528,293.5C 527.692,294.308 527.192,294.975 526.5,295.5C 521.581,294.374 516.748,294.374 512,295.5C 511.747,294.465 510.914,293.465 509.5,292.5C 507.735,292.695 506.235,292.695 505,292.5C 504.02,291.019 502.853,289.685 501.5,288.5C 502.855,287.325 502.688,286.325 501,285.5C 500.667,286.167 500.333,286.833 500,287.5C 498.701,287.034 497.201,287.034 495.5,287.5C 495.26,284.421 495.593,281.421 496.5,278.5C 495.885,276.884 494.885,275.551 493.5,274.5C 494.025,273.808 494.692,273.308 495.5,273C 493.527,272.505 491.527,272.338 489.5,272.5C 489.385,275.342 488.385,277.842 486.5,280C 486.645,280.772 486.978,281.439 487.5,282C 486.033,283.098 485.199,284.598 485,286.5C 484.667,286.167 484.333,285.833 484,285.5C 482.951,287.107 481.451,287.773 479.5,287.5C 479.657,288.873 479.49,290.207 479,291.5C 476.713,292.474 474.713,293.807 473,295.5C 472.374,293.009 471.541,293.009 470.5,295.5C 470.167,294.833 469.833,294.167 469.5,293.5C 468.452,294.383 467.285,295.05 466,295.5C 462.943,295.316 459.943,295.316 457,295.5C 456.5,294.333 455.667,293.5 454.5,293C 452.19,292.503 449.857,292.337 447.5,292.5C 447.5,291.167 447.5,289.833 447.5,288.5C 445.876,288.64 444.71,287.973 444,286.5C 442.175,287.103 440.341,287.77 438.5,288.5C 438.467,289.989 437.967,291.322 437,292.5C 436.722,291.584 436.222,290.918 435.5,290.5C 435.5,289.5 435.5,288.5 435.5,287.5C 432.436,287.856 429.769,287.023 427.5,285C 422.257,278.512 417.257,271.846 412.5,265C 421.475,262.537 425.641,256.704 425,247.5C 423.695,244.039 421.529,241.372 418.5,239.5C 420.199,239.34 421.866,239.506 423.5,240C 423.167,240.333 422.833,240.667 422.5,241C 426.264,241.459 428.097,243.626 428,247.5C 428.803,244.756 429.803,242.089 431,239.5C 431.333,241.167 431.667,242.833 432,244.5C 433.186,242.323 435.019,241.323 437.5,241.5C 437.343,242.873 437.51,244.207 438,245.5C 439.545,246.821 440.711,246.488 441.5,244.5C 440.5,243.167 439.5,241.833 438.5,240.5C 441.034,239.223 443.534,239.223 446,240.5C 447.08,238.447 447.914,236.28 448.5,234C 449.899,233.405 451.232,233.572 452.5,234.5C 454.708,234.194 456.208,233.194 457,231.5C 460.451,231.547 463.951,231.547 467.5,231.5C 470.21,233.48 473.043,233.814 476,232.5C 477.945,233.863 480.112,234.697 482.5,235C 479.345,235.981 479.012,237.315 481.5,239C 479.604,240.065 479.437,240.898 481,241.5C 482.533,240.305 484.033,240.305 485.5,241.5C 486.478,241.023 487.311,240.357 488,239.5C 488.308,240.308 488.808,240.975 489.5,241.5C 489.88,239.979 490.046,238.313 490,236.5C 492.133,235.745 493.8,234.412 495,232.5C 495.5,233 496,233.5 496.5,234C 495.044,234.423 494.544,235.256 495,236.5C 500.417,235.691 505.917,235.191 511.5,235C 500.833,234.333 500.833,233.667 511.5,233C 512,232.5 512.5,232 513,231.5C 515.999,232.924 519.499,233.924 523.5,234.5C 523.426,238.161 524.426,238.828 526.5,236.5C 535.663,234.755 544.663,234.755 553.5,236.5C 560.796,235.569 568.129,235.235 575.5,235.5C 576.288,231.203 578.621,230.37 582.5,233C 582.167,233.333 581.833,233.667 581.5,234C 582.784,234.684 583.951,234.517 585,233.5C 585.494,235.134 585.66,236.801 585.5,238.5 Z"/></g>
<g><path style="opacity:1" fill="#2a534d" d="M 136.5,237.5 C 145.839,237.334 155.173,237.5 164.5,238C 179.404,240.067 187.07,248.567 187.5,263.5C 187.655,278.514 180.322,287.347 165.5,290C 155.839,290.5 146.172,290.666 136.5,290.5C 136.5,289.5 136.5,288.5 136.5,287.5C 138.792,287.756 140.959,287.423 143,286.5C 143.667,271.833 143.667,257.167 143,242.5C 141.103,240.984 138.936,240.317 136.5,240.5C 136.5,239.5 136.5,238.5 136.5,237.5 Z"/></g>
<g><path style="opacity:1" fill="#f6fbfa" d="M 383.5,237.5 C 383.5,238.5 383.5,239.5 383.5,240.5C 385.806,240.993 388.139,241.326 390.5,241.5C 390.667,256.504 390.5,271.504 390,286.5C 389.617,287.056 389.117,287.389 388.5,287.5C 390.264,279.669 389.764,272.002 387,264.5C 386.309,266.891 385.309,266.891 384,264.5C 382.53,268.469 379.697,270.802 375.5,271.5C 375.631,276.681 375.631,281.681 375.5,286.5C 376.025,287.192 376.692,287.692 377.5,288C 375.833,289.667 374.167,291.333 372.5,293C 373.5,293.333 374.5,293.667 375.5,294C 371.265,295.51 367.265,295.51 363.5,294C 357.251,293.191 351.084,293.358 345,294.5C 341.915,293.568 338.748,292.901 335.5,292.5C 335.5,290.167 335.5,287.833 335.5,285.5C 343.198,291.209 351.865,293.042 361.5,291C 364.893,290.202 368.226,289.202 371.5,288C 372.309,282.583 372.809,277.083 373,271.5C 374.897,269.984 377.064,269.317 379.5,269.5C 379.5,268.5 379.5,267.5 379.5,266.5C 371.5,266.5 363.5,266.5 355.5,266.5C 355.5,267.5 355.5,268.5 355.5,269.5C 358.48,269.62 361.313,270.287 364,271.5C 364.829,276.533 364.662,281.533 363.5,286.5C 349.771,291.218 340.938,286.551 337,272.5C 335.416,263.011 336.75,254.011 341,245.5C 349.076,237.59 357.076,237.59 365,245.5C 366.893,248.618 368.226,251.951 369,255.5C 370.011,256.337 371.178,256.67 372.5,256.5C 372.5,250.833 372.5,245.167 372.5,239.5C 373.825,238.047 374.658,238.381 375,240.5C 375.374,239.584 375.874,238.75 376.5,238C 378.81,237.503 381.143,237.337 383.5,237.5 Z"/></g>
<g><path style="opacity:1" fill="#f3f8f8" d="M 151.5,240.5 C 172.768,240.616 181.601,251.283 178,272.5C 174.232,285.883 165.899,290.216 153,285.5C 151.549,270.572 151.049,255.572 151.5,240.5 Z"/></g>
<g><path style="opacity:1" fill="#f0f9f8" d="M 255.5,239.5 C 249.455,237.607 243.121,236.94 236.5,237.5C 236.5,238.5 236.5,239.5 236.5,240.5C 239.777,240.422 242.277,241.756 244,244.5C 244.667,257.5 244.667,270.5 244,283.5C 243.208,285.644 241.708,286.977 239.5,287.5C 240.588,285.417 241.588,283.251 242.5,281C 241.892,279.769 241.559,278.436 241.5,277C 243.48,267.257 243.98,257.424 243,247.5C 240.961,244.405 238.294,244.071 235,246.5C 234.689,245.258 235.189,244.258 236.5,243.5C 233.429,242.724 231.429,244.057 230.5,247.5C 233.723,249.825 234.056,252.325 231.5,255C 232.448,255.483 233.448,255.649 234.5,255.5C 235.069,261.467 232.903,263.134 228,260.5C 227.5,260.833 227,261.167 226.5,261.5C 228.701,262.853 229.368,264.52 228.5,266.5C 221.995,262.155 214.995,258.655 207.5,256C 201.468,251.285 201.135,246.285 206.5,241C 217.652,238.941 223.986,243.774 225.5,255.5C 226.5,255.5 227.5,255.5 228.5,255.5C 228.823,249.31 228.49,243.31 227.5,237.5C 227.389,236.883 227.056,236.383 226.5,236C 227.872,235.598 229.205,235.098 230.5,234.5C 231.983,236.946 233.149,236.612 234,233.5C 235.16,235.797 236.16,235.464 237,232.5C 237.308,233.308 237.808,233.975 238.5,234.5C 243.071,233.646 247.238,232.646 251,231.5C 251.75,232.126 252.584,232.626 253.5,233C 252.66,234.666 253.16,234.833 255,233.5C 255.495,235.473 255.662,237.473 255.5,239.5 Z"/></g>
<g><path style="opacity:1" fill="#28514d" d="M 383.5,237.5 C 395.283,236.974 406.95,237.641 418.5,239.5C 421.529,241.372 423.695,244.039 425,247.5C 425.641,256.704 421.475,262.537 412.5,265C 417.257,271.846 422.257,278.512 427.5,285C 429.769,287.023 432.436,287.856 435.5,287.5C 435.5,288.5 435.5,289.5 435.5,290.5C 430.456,290.827 425.456,290.494 420.5,289.5C 415.535,281.736 410.202,274.236 404.5,267C 402.527,266.505 400.527,266.338 398.5,266.5C 398.334,272.842 398.5,279.175 399,285.5C 401.135,287.278 403.635,287.945 406.5,287.5C 406.5,288.5 406.5,289.5 406.5,290.5C 398.833,290.5 391.167,290.5 383.5,290.5C 383.5,289.5 383.5,288.5 383.5,287.5C 385.167,287.5 386.833,287.5 388.5,287.5C 389.117,287.389 389.617,287.056 390,286.5C 390.5,271.504 390.667,256.504 390.5,241.5C 388.139,241.326 385.806,240.993 383.5,240.5C 383.5,239.5 383.5,238.5 383.5,237.5 Z"/></g>
<g><path style="opacity:1" fill="#f3f9f9" d="M 398.5,240.5 C 411.51,238.345 417.01,243.678 415,256.5C 411.156,262.5 405.656,264.834 398.5,263.5C 398.5,255.833 398.5,248.167 398.5,240.5 Z"/></g>
<g><path style="opacity:1" fill="#26524c" d="M 585.5,238.5 C 594.53,243.254 596.696,250.254 592,259.5C 585.611,266.09 577.777,268.757 568.5,267.5C 568.334,273.842 568.5,280.175 569,286.5C 571.381,287.435 573.881,287.768 576.5,287.5C 576.5,288.5 576.5,289.5 576.5,290.5C 568.833,290.5 561.167,290.5 553.5,290.5C 553.5,289.5 553.5,288.5 553.5,287.5C 556.079,287.917 558.246,287.25 560,285.5C 560.827,270.994 560.661,256.661 559.5,242.5C 557.786,241.262 555.786,240.595 553.5,240.5C 553.5,239.5 553.5,238.5 553.5,237.5C 564.198,237.263 574.865,237.596 585.5,238.5 Z"/></g>
<g><path style="opacity:1" fill="#f2f9fa" d="M 568.5,240.5 C 581.439,239.034 586.606,244.701 584,257.5C 580.372,262.996 575.205,265.33 568.5,264.5C 568.5,256.5 568.5,248.5 568.5,240.5 Z"/></g>
<g><path style="opacity:1" fill="#29514c" d="M 227.5,237.5 C 228.49,243.31 228.823,249.31 228.5,255.5C 227.5,255.5 226.5,255.5 225.5,255.5C 223.986,243.774 217.652,238.941 206.5,241C 201.135,246.285 201.468,251.285 207.5,256C 214.995,258.655 221.995,262.155 228.5,266.5C 233.892,281.289 228.725,289.622 213,291.5C 208.442,291.444 204.109,290.444 200,288.5C 198.403,289.885 196.57,290.551 194.5,290.5C 194.5,284.5 194.5,278.5 194.5,272.5C 195.675,272.281 196.675,272.614 197.5,273.5C 200.197,284.054 206.863,288.887 217.5,288C 223.612,284.753 225.112,279.92 222,273.5C 220.833,272.333 219.667,271.167 218.5,270C 212.719,267.943 207.053,265.61 201.5,263C 192.694,253.501 193.694,245.167 204.5,238C 210.874,235.782 217.041,236.282 223,239.5C 224.406,238.586 225.906,237.92 227.5,237.5 Z"/></g>
<g><path style="opacity:1" fill="#28514c" d="M 255.5,239.5 C 259.65,252.12 264.483,264.453 270,276.5C 272.466,270.576 274.632,264.576 276.5,258.5C 279.73,252.161 282.397,245.494 284.5,238.5C 290.128,237.505 295.794,237.171 301.5,237.5C 301.5,238.5 301.5,239.5 301.5,240.5C 298.956,240.104 296.789,240.771 295,242.5C 294.333,256.833 294.333,271.167 295,285.5C 297.268,286.76 299.434,288.094 301.5,289.5C 293.862,290.497 286.196,290.831 278.5,290.5C 278.5,289.5 278.5,288.5 278.5,287.5C 281.365,287.945 283.865,287.278 286,285.5C 286.667,272.167 286.667,258.833 286,245.5C 279.866,260.071 274.033,274.738 268.5,289.5C 266.876,289.64 265.71,288.973 265,287.5C 259.863,273.089 254.53,258.756 249,244.5C 248.333,257.5 248.333,270.5 249,283.5C 250.812,286.821 253.645,288.155 257.5,287.5C 257.5,288.5 257.5,289.5 257.5,290.5C 250.167,290.5 242.833,290.5 235.5,290.5C 235.5,289.5 235.5,288.5 235.5,287.5C 236.833,287.5 238.167,287.5 239.5,287.5C 241.708,286.977 243.208,285.644 244,283.5C 244.667,270.5 244.667,257.5 244,244.5C 242.277,241.756 239.777,240.422 236.5,240.5C 236.5,239.5 236.5,238.5 236.5,237.5C 243.121,236.94 249.455,237.607 255.5,239.5 Z"/></g>
<g><path style="opacity:1" fill="#2a524c" d="M 494.5,237.5 C 501.833,237.5 509.167,237.5 516.5,237.5C 516.5,238.5 516.5,239.5 516.5,240.5C 513.956,240.104 511.789,240.771 510,242.5C 509.333,254.833 509.333,267.167 510,279.5C 511.946,285.56 516.112,288.227 522.5,287.5C 528.845,287.995 533.345,285.328 536,279.5C 536.667,268.167 536.667,256.833 536,245.5C 534.375,241.933 531.542,240.266 527.5,240.5C 527.5,239.5 527.5,238.5 527.5,237.5C 534.5,237.5 541.5,237.5 548.5,237.5C 548.5,238.5 548.5,239.5 548.5,240.5C 544.584,240.277 542.084,241.944 541,245.5C 540.667,256.833 540.333,268.167 540,279.5C 536.481,288.183 529.981,292.183 520.5,291.5C 512.039,292.189 505.872,288.856 502,281.5C 501.667,269.167 501.333,256.833 501,244.5C 499.728,241.778 497.561,240.444 494.5,240.5C 494.5,239.5 494.5,238.5 494.5,237.5 Z"/></g>
<g><path style="opacity:1" fill="#29514b" d="M 372.5,239.5 C 372.5,245.167 372.5,250.833 372.5,256.5C 371.178,256.67 370.011,256.337 369,255.5C 368.226,251.951 366.893,248.618 365,245.5C 357.076,237.59 349.076,237.59 341,245.5C 336.75,254.011 335.416,263.011 337,272.5C 340.938,286.551 349.771,291.218 363.5,286.5C 364.662,281.533 364.829,276.533 364,271.5C 361.313,270.287 358.48,269.62 355.5,269.5C 355.5,268.5 355.5,267.5 355.5,266.5C 363.5,266.5 371.5,266.5 379.5,266.5C 379.5,267.5 379.5,268.5 379.5,269.5C 377.064,269.317 374.897,269.984 373,271.5C 372.809,277.083 372.309,282.583 371.5,288C 368.226,289.202 364.893,290.202 361.5,291C 351.865,293.042 343.198,291.209 335.5,285.5C 327.945,277.261 325.445,267.594 328,256.5C 335.402,238.304 348.402,232.637 367,239.5C 368.092,238.704 369.259,238.037 370.5,237.5C 371.713,237.747 372.38,238.414 372.5,239.5 Z"/></g>
<g><path style="opacity:1" fill="#2a514c" d="M 457.5,236.5 C 476.425,235.923 486.759,245.09 488.5,264C 486.981,284.592 475.981,293.592 455.5,291C 446.157,287.656 440.323,281.156 438,271.5C 434.709,254.061 441.209,242.394 457.5,236.5 Z"/></g>
<g><path style="opacity:1" fill="#f7fbfb" d="M 459.5,239.5 C 466.526,239.097 472.026,241.763 476,247.5C 481.028,259.864 480.362,271.864 474,283.5C 460.48,292.578 451.48,289.244 447,273.5C 445.934,265.006 446.601,256.672 449,248.5C 451.489,244.168 454.989,241.168 459.5,239.5 Z"/></g>
<g><path style="opacity:1" fill="#f0f8f8" d="M 268.5,289.5 C 274.033,274.738 279.866,260.071 286,245.5C 286.667,258.833 286.667,272.167 286,285.5C 283.865,287.278 281.365,287.945 278.5,287.5C 278.5,288.5 278.5,289.5 278.5,290.5C 286.196,290.831 293.862,290.497 301.5,289.5C 299.434,288.094 297.268,286.76 295,285.5C 294.333,271.167 294.333,256.833 295,242.5C 296.789,240.771 298.956,240.104 301.5,240.5C 301.5,239.5 301.5,238.5 301.5,237.5C 295.794,237.171 290.128,237.505 284.5,238.5C 282.397,245.494 279.73,252.161 276.5,258.5C 274.815,257.816 273.815,256.483 273.5,254.5C 278.38,247.28 280.547,239.613 280,231.5C 281.309,233.891 282.309,233.891 283,231.5C 283.667,234.167 284.333,234.167 285,231.5C 285.667,234.167 286.333,234.167 287,231.5C 287.483,232.448 287.649,233.448 287.5,234.5C 292.839,235.158 298.005,235.158 303,234.5C 303.498,237.482 303.665,240.482 303.5,243.5C 300.639,243.513 299.639,244.679 300.5,247C 299.175,246.852 298.008,247.018 297,247.5C 296.333,258.5 296.333,269.5 297,280.5C 298.684,282.701 300.684,283.367 303,282.5C 303.19,284.973 303.19,287.64 303,290.5C 297.93,291.794 292.764,292.794 287.5,293.5C 287.167,294.5 286.5,295.167 285.5,295.5C 282.807,294.855 280.307,294.855 278,295.5C 277.333,292.833 276.667,292.833 276,295.5C 275.458,290.279 274.624,290.279 273.5,295.5C 272.5,294.167 271.5,294.167 270.5,295.5C 269.5,295 268.5,294.5 267.5,294C 268.949,292.883 270.616,292.216 272.5,292C 271.692,290.294 270.359,289.461 268.5,289.5 Z"/></g>
<g><path style="opacity:1" fill="#f8f5e8" d="M 203.5,307.5 C 203.5,307.833 203.5,308.167 203.5,308.5C 203.565,308.938 203.399,309.272 203,309.5C 201.887,308.695 200.721,308.028 199.5,307.5C 196.969,301.39 192.636,299.89 186.5,303C 185.549,303.718 185.383,304.551 186,305.5C 188.837,303.415 191.837,303.081 195,304.5C 195.72,306.112 195.554,307.612 194.5,309C 187.497,309.497 187.163,310.163 193.5,311C 196.346,311.879 197.013,313.546 195.5,316C 192.237,318.028 189.07,317.861 186,315.5C 185.235,315.57 184.735,315.903 184.5,316.5C 183.957,316.44 183.624,316.107 183.5,315.5C 184.074,313.941 184.74,312.441 185.5,311C 182.833,310.333 182.833,309.667 185.5,309C 184.643,308.311 183.977,307.478 183.5,306.5C 184.437,302.624 184.437,298.957 183.5,295.5C 187.623,297.303 192.956,298.97 199.5,300.5C 200.086,300.291 200.586,299.957 201,299.5C 201.651,301.235 201.485,302.902 200.5,304.5C 200.879,306.213 201.879,307.213 203.5,307.5 Z"/></g>
<g><path style="opacity:1" fill="#f9f6e2" d="M 301.5,318.5 C 302.833,318.5 304.167,318.5 305.5,318.5C 305.5,314.5 305.5,310.5 305.5,306.5C 304.167,306.5 302.833,306.5 301.5,306.5C 301.5,305.5 301.5,304.5 301.5,303.5C 304.491,303.33 306.491,304.663 307.5,307.5C 308.366,305.418 309.866,304.085 312,303.5C 319.588,304.076 327.421,304.076 335.5,303.5C 335.5,304.5 335.5,305.5 335.5,306.5C 338.585,306.418 340.252,307.918 340.5,311C 339.434,314.615 337.6,317.781 335,320.5C 323.735,319.843 312.569,319.177 301.5,318.5 Z"/></g>
<g><path style="opacity:1" fill="#faf8ea" d="M 351.5,306.5 C 349.887,306.944 348.72,307.944 348,309.5C 347.57,312.192 347.737,314.859 348.5,317.5C 350.646,317.878 352.813,318.212 355,318.5C 356.973,318.691 358.473,318.024 359.5,316.5C 357.437,317.215 355.104,317.215 352.5,316.5C 349.424,308.819 351.758,305.986 359.5,308C 357.713,306.681 355.713,305.848 353.5,305.5C 354.492,303.974 355.992,303.307 358,303.5C 364.295,304.242 370.795,304.242 377.5,303.5C 379.693,303.771 381.359,304.771 382.5,306.5C 380.167,306.5 377.833,306.5 375.5,306.5C 375.5,311.833 375.5,317.167 375.5,322.5C 376.5,322.5 377.5,322.5 378.5,322.5C 378.5,321.167 378.5,319.833 378.5,318.5C 382.155,319.075 385.155,318.075 387.5,315.5C 390.142,315.488 391.475,316.821 391.5,319.5C 388.938,318.629 386.272,318.629 383.5,319.5C 383.5,320.833 383.5,322.167 383.5,323.5C 381.856,323.286 380.356,323.62 379,324.5C 375.255,323.512 371.422,322.845 367.5,322.5C 367.5,321.5 367.5,320.5 367.5,319.5C 360.167,319.5 352.833,319.5 345.5,319.5C 345.879,314.154 345.213,308.987 343.5,304C 345.5,303.333 347.5,303.333 349.5,304C 350.756,304.417 351.423,305.25 351.5,306.5 Z"/></g>
<g><path style="opacity:1" fill="#adaa8c" d="M 360.5,306.5 C 364.884,306.174 369.217,306.508 373.5,307.5C 371.955,308.452 370.288,308.785 368.5,308.5C 368.5,311.833 368.5,315.167 368.5,318.5C 367.5,318.5 366.5,318.5 365.5,318.5C 365.5,315.167 365.5,311.833 365.5,308.5C 363.219,308.923 361.552,308.256 360.5,306.5 Z"/></g>
<g><path style="opacity:1" fill="#f9f5de" d="M 415.5,306.5 C 411.916,316.521 410.25,316.521 410.5,306.5C 409.5,306.5 408.5,306.5 407.5,306.5C 407.5,310.5 407.5,314.5 407.5,318.5C 408.873,318.657 410.207,318.49 411.5,318C 413.291,315.586 414.957,313.086 416.5,310.5C 417.168,313.306 417.834,315.972 418.5,318.5C 417.09,319.828 415.924,319.495 415,317.5C 414.5,318 414,318.5 413.5,319C 406.174,319.5 398.841,319.666 391.5,319.5C 391.475,316.821 390.142,315.488 387.5,315.5C 389.596,310.982 388.262,307.982 383.5,306.5C 383.5,305.5 383.5,304.5 383.5,303.5C 385.668,304.179 387.668,305.179 389.5,306.5C 391.724,304.638 394.391,303.638 397.5,303.5C 400.682,303.046 403.182,304.046 405,306.5C 406.677,305.484 408.343,304.484 410,303.5C 411.731,304.741 413.564,305.741 415.5,306.5 Z"/></g>
<g><path style="opacity:1" fill="#a8a47f" d="M 265.5,305.5 C 266.833,305.833 268.167,306.167 269.5,306.5C 273.678,308.867 274.511,312.2 272,316.5C 268.168,319.125 264.335,319.125 260.5,316.5C 260.5,316.167 260.5,315.833 260.5,315.5C 258.64,310.369 260.307,307.035 265.5,305.5 Z"/></g>
<g><path style="opacity:1" fill="#a7a471" d="M 301.5,306.5 C 302.833,306.5 304.167,306.5 305.5,306.5C 305.5,310.5 305.5,314.5 305.5,318.5C 304.167,318.5 302.833,318.5 301.5,318.5C 301.5,316.833 301.5,315.167 301.5,313.5C 299.735,312.539 297.735,312.205 295.5,312.5C 295.5,314.5 295.5,316.5 295.5,318.5C 294.5,318.5 293.5,318.5 292.5,318.5C 292.5,315.167 292.5,311.833 292.5,308.5C 292.821,306.952 293.821,306.285 295.5,306.5C 295.5,308.167 295.5,309.833 295.5,311.5C 297.5,311.5 299.5,311.5 301.5,311.5C 301.5,309.833 301.5,308.167 301.5,306.5 Z"/></g>
<g><path style="opacity:1" fill="#a8a27f" d="M 433.5,306.5 C 435.379,306.393 435.712,306.893 434.5,308C 433.216,308.684 432.049,308.517 431,307.5C 430.502,310.482 430.335,313.482 430.5,316.5C 430.179,318.048 429.179,318.715 427.5,318.5C 427.5,315.167 427.5,311.833 427.5,308.5C 425.712,308.785 424.045,308.452 422.5,307.5C 426.107,306.511 429.774,306.177 433.5,306.5 Z"/></g>
<g><path style="opacity:1" fill="#ada57c" d="M 353.5,305.5 C 355.713,305.848 357.713,306.681 359.5,308C 351.758,305.986 349.424,308.819 352.5,316.5C 355.104,317.215 357.437,317.215 359.5,316.5C 358.473,318.024 356.973,318.691 355,318.5C 352.813,318.212 350.646,317.878 348.5,317.5C 347.737,314.859 347.57,312.192 348,309.5C 348.72,307.944 349.887,306.944 351.5,306.5C 352.492,306.672 353.158,306.338 353.5,305.5 Z"/></g>
<g><path style="opacity:1" fill="#a4a27e" d="M 382.5,306.5 C 382.833,306.5 383.167,306.5 383.5,306.5C 388.262,307.982 389.596,310.982 387.5,315.5C 385.155,318.075 382.155,319.075 378.5,318.5C 378.5,319.833 378.5,321.167 378.5,322.5C 377.5,322.5 376.5,322.5 375.5,322.5C 375.5,317.167 375.5,311.833 375.5,306.5C 377.833,306.5 380.167,306.5 382.5,306.5 Z"/></g>
<g><path style="opacity:1" fill="#f9f6de" d="M 378.5,307.5 C 385.046,307.772 386.713,310.606 383.5,316C 381.866,316.494 380.199,316.66 378.5,316.5C 378.5,313.5 378.5,310.5 378.5,307.5 Z"/></g>
<g><path style="opacity:1" fill="#f9f4e6" d="M 264.5,307.5 C 269.947,307.45 271.614,309.95 269.5,315C 266.082,318.315 263.748,317.482 262.5,312.5C 263.174,310.805 263.841,309.138 264.5,307.5 Z"/></g>
<g><path style="opacity:1" fill="#aba784" d="M 329.5,305.5 C 334.543,305.877 337.21,308.543 337.5,313.5C 334.15,313.335 330.817,313.502 327.5,314C 329.432,317.198 332.099,318.198 335.5,317C 326.979,320.483 323.479,317.65 325,308.5C 326.31,307.103 327.81,306.103 329.5,305.5 Z"/></g>
<g><path style="opacity:1" fill="#f8f5cf" d="M 329.5,307.5 C 332.5,307.167 333.833,308.5 333.5,311.5C 331.5,311.5 329.5,311.5 327.5,311.5C 327.527,309.801 328.194,308.467 329.5,307.5 Z"/></g>
<g><path style="opacity:1" fill="#aba57e" d="M 415.5,306.5 C 417.167,306.5 418.833,306.5 420.5,306.5C 421.089,310.971 420.423,314.971 418.5,318.5C 417.834,315.972 417.168,313.306 416.5,310.5C 414.957,313.086 413.291,315.586 411.5,318C 410.207,318.49 408.873,318.657 407.5,318.5C 407.5,314.5 407.5,310.5 407.5,306.5C 408.5,306.5 409.5,306.5 410.5,306.5C 410.25,316.521 411.916,316.521 415.5,306.5 Z"/></g>
<g><path style="opacity:1" fill="#a7a27d" d="M 396.5,305.5 C 404.892,307.062 406.559,311.229 401.5,318C 400.167,318.667 398.833,318.667 397.5,318C 401.763,315.353 402.43,312.019 399.5,308C 397.888,307.28 396.388,307.446 395,308.5C 394.064,311.792 394.564,314.792 396.5,317.5C 393.946,318.303 392.112,317.303 391,314.5C 390.305,309.882 392.138,306.882 396.5,305.5 Z"/></g>
<g><path style="opacity:1" fill="#f7f3d9" d="M 265.5,305.5 C 260.307,307.035 258.64,310.369 260.5,315.5C 258.879,315.787 257.879,316.787 257.5,318.5C 254.232,319.487 250.898,319.82 247.5,319.5C 251.251,319.074 254.417,317.407 257,314.5C 257.851,310.538 256.351,307.871 252.5,306.5C 252.5,305.5 252.5,304.5 252.5,303.5C 255.596,302.907 257.929,303.907 259.5,306.5C 260.386,305.675 260.719,304.675 260.5,303.5C 262.781,303.077 264.448,303.744 265.5,305.5 Z"/></g>
<g><path style="opacity:1" fill="#a7a380" d="M 199.5,307.5 C 196.19,308.871 196.023,310.204 199,311.5C 200.153,316.705 197.987,319.038 192.5,318.5C 189.505,318.706 186.838,318.04 184.5,316.5C 184.735,315.903 185.235,315.57 186,315.5C 189.07,317.861 192.237,318.028 195.5,316C 197.013,313.546 196.346,311.879 193.5,311C 187.163,310.163 187.497,309.497 194.5,309C 195.554,307.612 195.72,306.112 195,304.5C 191.837,303.081 188.837,303.415 186,305.5C 185.383,304.551 185.549,303.718 186.5,303C 192.636,299.89 196.969,301.39 199.5,307.5 Z"/></g>
<g><path style="opacity:1" fill="#aaa682" d="M 207.5,305.5 C 210.099,305.549 212.266,306.549 214,308.5C 214.498,311.817 214.665,315.15 214.5,318.5C 212.167,318.5 209.833,318.5 207.5,318.5C 203,318.836 201.167,316.836 202,312.5C 204.748,311.314 207.581,310.314 210.5,309.5C 210,308.119 209,307.453 207.5,307.5C 206.151,307.846 204.817,308.179 203.5,308.5C 203.5,308.167 203.5,307.833 203.5,307.5C 204.833,306.833 206.167,306.167 207.5,305.5 Z"/></g>
<g><path style="opacity:1" fill="#fcf9d1" d="M 205.5,312.5 C 207.167,312.5 208.833,312.5 210.5,312.5C 210.5,313.833 210.5,315.167 210.5,316.5C 208.833,316.5 207.167,316.5 205.5,316.5C 205.5,315.167 205.5,313.833 205.5,312.5 Z"/></g>
<g><path style="opacity:1" fill="#a7a27c" d="M 247.5,306.5 C 249.167,306.5 250.833,306.5 252.5,306.5C 256.351,307.871 257.851,310.538 257,314.5C 254.417,317.407 251.251,319.074 247.5,319.5C 247.5,320.5 247.5,321.5 247.5,322.5C 246.5,322.5 245.5,322.5 244.5,322.5C 244.5,317.167 244.5,311.833 244.5,306.5C 245.5,306.5 246.5,306.5 247.5,306.5 Z"/></g>
<g><path style="opacity:1" fill="#fcf9dc" d="M 247.5,308.5 C 249.5,308.5 251.5,308.5 253.5,308.5C 254.82,313.907 252.82,316.574 247.5,316.5C 247.5,313.833 247.5,311.167 247.5,308.5 Z"/></g>
<g><path style="opacity:1" fill="#a7a37f" d="M 313.5,305.5 C 320.387,305.553 322.887,308.887 321,315.5C 317.341,319.115 313.341,319.448 309,316.5C 308.333,313.833 308.333,311.167 309,308.5C 310.31,307.103 311.81,306.103 313.5,305.5 Z"/></g>
<g><path style="opacity:1" fill="#faf3e6" d="M 313.5,307.5 C 318.151,308.174 319.651,310.841 318,315.5C 313.874,318.406 311.707,317.24 311.5,312C 311.759,310.213 312.425,308.713 313.5,307.5 Z"/></g>
<g><path style="opacity:1" fill="#f8f6d3" d="M 199.5,307.5 C 200.721,308.028 201.887,308.695 203,309.5C 203.399,309.272 203.565,308.938 203.5,308.5C 204.817,308.179 206.151,307.846 207.5,307.5C 209,307.453 210,308.119 210.5,309.5C 207.581,310.314 204.748,311.314 202,312.5C 201.167,316.836 203,318.836 207.5,318.5C 207.5,318.833 207.5,319.167 207.5,319.5C 202.305,319.821 197.305,319.487 192.5,318.5C 197.987,319.038 200.153,316.705 199,311.5C 196.023,310.204 196.19,308.871 199.5,307.5 Z"/></g>
<g><path style="opacity:1" fill="#aba47b" d="M 287.5,306.5 C 288.338,306.842 288.672,307.508 288.5,308.5C 288.69,312.923 289.357,317.256 290.5,321.5C 289.5,321.5 288.5,321.5 287.5,321.5C 287.5,320.5 287.5,319.5 287.5,318.5C 284.167,318.5 280.833,318.5 277.5,318.5C 277.5,319.5 277.5,320.5 277.5,321.5C 276.5,321.5 275.5,321.5 274.5,321.5C 274.341,318.813 275.175,316.48 277,314.5C 277.497,311.854 277.664,309.187 277.5,306.5C 280.833,306.5 284.167,306.5 287.5,306.5 Z"/></g>
<g><path style="opacity:1" fill="#f9f7e1" d="M 447.5,307.5 C 440.057,304.133 436.223,306.466 436,314.5C 437.393,317.366 439.726,318.699 443,318.5C 444.728,318.546 446.228,318.046 447.5,317C 445.965,316.504 444.465,316.67 443,317.5C 441.378,317.046 440.212,316.046 439.5,314.5C 442.768,313.513 446.102,313.18 449.5,313.5C 449.371,311.784 449.038,310.117 448.5,308.5C 450.185,304.69 453.185,303.023 457.5,303.5C 460.158,303.69 462.658,304.357 465,305.5C 466.921,303.997 469.088,303.331 471.5,303.5C 471.357,305.262 471.691,306.929 472.5,308.5C 474.743,309.474 477.076,309.808 479.5,309.5C 479.5,307.5 479.5,305.5 479.5,303.5C 488.601,302.88 497.434,303.546 506,305.5C 507.996,303.941 510.329,303.274 513,303.5C 520.085,303.806 527.585,303.973 535.5,304C 540.308,308.175 541.974,313.341 540.5,319.5C 526.163,319.667 511.829,319.5 497.5,319C 496.5,318.667 495.5,318.333 494.5,318C 495.451,314.943 495.784,311.777 495.5,308.5C 496.5,308.5 497.5,308.5 498.5,308.5C 498.5,311.833 498.5,315.167 498.5,318.5C 499.833,318.5 501.167,318.5 502.5,318.5C 502.5,314.833 502.5,311.167 502.5,307.5C 503.873,307.657 505.207,307.49 506.5,307C 502.848,306.501 499.182,306.335 495.5,306.5C 494.739,305.609 493.739,304.942 492.5,304.5C 491.702,304.957 491.369,305.624 491.5,306.5C 483.641,304.525 480.475,307.525 482,315.5C 482.698,316.691 483.531,317.691 484.5,318.5C 477.5,319.833 470.5,319.833 463.5,318.5C 454.321,319.987 444.987,320.321 435.5,319.5C 435.622,316.743 434.455,314.743 432,313.5C 431.768,314.737 431.268,315.737 430.5,316.5C 430.335,313.482 430.502,310.482 431,307.5C 432.049,308.517 433.216,308.684 434.5,308C 435.712,306.893 435.379,306.393 433.5,306.5C 433.5,305.5 433.5,304.5 433.5,303.5C 438.167,303.5 442.833,303.5 447.5,303.5C 447.5,304.833 447.5,306.167 447.5,307.5 Z"/></g>
<g><path style="opacity:1" fill="#bdb68f" d="M 508.5,306.5 C 511.879,306.678 515.045,306.678 518,306.5C 520.952,308.193 521.118,310.026 518.5,312C 522.5,314 522.5,316 518.5,318C 515.183,318.498 511.85,318.665 508.5,318.5C 508.5,314.5 508.5,310.5 508.5,306.5 Z"/></g>
<g><path style="opacity:1" fill="#a3a186" d="M 491.5,306.5 C 492.289,306.783 492.956,307.283 493.5,308C 490.807,307.498 488.14,307.665 485.5,308.5C 483.21,316.043 485.876,318.876 493.5,317C 490.649,318.289 487.649,318.789 484.5,318.5C 483.531,317.691 482.698,316.691 482,315.5C 480.475,307.525 483.641,304.525 491.5,306.5 Z"/></g>
<g><path style="opacity:1" fill="#aba47e" d="M 466.5,306.5 C 467.833,306.5 469.167,306.5 470.5,306.5C 470.5,307.833 470.5,309.167 470.5,310.5C 474.585,309.659 477.585,310.992 479.5,314.5C 478.636,316.197 477.303,317.363 475.5,318C 472.518,318.498 469.518,318.665 466.5,318.5C 466.5,314.5 466.5,310.5 466.5,306.5 Z"/></g>
<g><path style="opacity:1" fill="#f8f8d2" d="M 470.5,312.5 C 472.167,312.5 473.833,312.5 475.5,312.5C 475.5,313.833 475.5,315.167 475.5,316.5C 473.833,316.5 472.167,316.5 470.5,316.5C 470.5,315.167 470.5,313.833 470.5,312.5 Z"/></g>
<g><path style="opacity:1" fill="#a6a27b" d="M 528.5,305.5 C 536.604,306.069 538.937,309.902 535.5,317C 527.278,320.748 523.445,318.248 524,309.5C 525.25,307.807 526.75,306.473 528.5,305.5 Z"/></g>
<g><path style="opacity:1" fill="#f4f3d6" d="M 528.5,307.5 C 534.394,308.294 535.727,311.294 532.5,316.5C 529.578,317.787 527.745,316.787 527,313.5C 526.257,311.126 526.757,309.126 528.5,307.5 Z"/></g>
<g><path style="opacity:1" fill="#a8a37d" d="M 447.5,307.5 C 447.5,308.167 447.833,308.5 448.5,308.5C 449.038,310.117 449.371,311.784 449.5,313.5C 446.102,313.18 442.768,313.513 439.5,314.5C 440.212,316.046 441.378,317.046 443,317.5C 444.465,316.67 445.965,316.504 447.5,317C 446.228,318.046 444.728,318.546 443,318.5C 439.726,318.699 437.393,317.366 436,314.5C 436.223,306.466 440.057,304.133 447.5,307.5 Z"/></g>
<g><path style="opacity:1" fill="#b3a88a" d="M 495.5,306.5 C 499.182,306.335 502.848,306.501 506.5,307C 505.207,307.49 503.873,307.657 502.5,307.5C 502.5,311.167 502.5,314.833 502.5,318.5C 501.167,318.5 499.833,318.5 498.5,318.5C 498.5,315.167 498.5,311.833 498.5,308.5C 497.5,308.5 496.5,308.5 495.5,308.5C 494.167,307.833 494.167,307.167 495.5,306.5 Z"/></g>
<g><path style="opacity:1" fill="#a99f7d" d="M 463.5,318.5 C 462.5,318.5 461.5,318.5 460.5,318.5C 460.5,315.167 460.5,311.833 460.5,308.5C 458.833,308.5 457.167,308.5 455.5,308.5C 456.425,312.894 455.092,316.228 451.5,318.5C 450.833,318.333 450.167,318.167 449.5,318C 450.667,317.5 451.5,316.667 452,315.5C 452.498,312.518 452.665,309.518 452.5,306.5C 456.167,306.5 459.833,306.5 463.5,306.5C 463.5,310.5 463.5,314.5 463.5,318.5 Z"/></g>
<g><path style="opacity:1" fill="#f9f4d0" d="M 440.5,307.5 C 443.95,306.756 445.616,308.09 445.5,311.5C 443.5,311.5 441.5,311.5 439.5,311.5C 439.433,310.041 439.766,308.708 440.5,307.5 Z"/></g>
<g><path style="opacity:1" fill="#fbfaea" d="M 221.5,306.5 C 220.167,306.5 218.833,306.5 217.5,306.5C 217.5,310.5 217.5,314.5 217.5,318.5C 218.5,318.5 219.5,318.5 220.5,318.5C 220.5,315.167 220.5,311.833 220.5,308.5C 223.073,308.852 225.406,308.352 227.5,307C 226.207,306.51 224.873,306.343 223.5,306.5C 223.918,305.778 224.584,305.278 225.5,305C 225.167,304.667 224.833,304.333 224.5,304C 225.833,303.833 227.167,303.667 228.5,303.5C 234.386,303.45 240.386,303.783 246.5,304.5C 246.863,305.183 247.196,305.85 247.5,306.5C 246.5,306.5 245.5,306.5 244.5,306.5C 244.5,311.833 244.5,317.167 244.5,322.5C 242.284,322.725 240.617,321.892 239.5,320C 235.179,319.501 230.846,319.334 226.5,319.5C 225.637,316.041 224.47,312.708 223,309.5C 222.685,312.372 222.185,315.205 221.5,318C 223.003,319.921 223.669,322.088 223.5,324.5C 218.125,324.828 212.792,324.495 207.5,323.5C 208.363,322.274 208.363,320.94 207.5,319.5C 207.5,319.167 207.5,318.833 207.5,318.5C 209.833,318.5 212.167,318.5 214.5,318.5C 214.665,315.15 214.498,311.817 214,308.5C 212.266,306.549 210.099,305.549 207.5,305.5C 208.918,303.692 210.918,303.025 213.5,303.5C 213.5,304.5 213.5,305.5 213.5,306.5C 214.5,306.5 215.5,306.5 216.5,306.5C 216.5,305.5 216.5,304.5 216.5,303.5C 218.167,303.5 219.833,303.5 221.5,303.5C 221.5,304.5 221.5,305.5 221.5,306.5 Z"/></g>
<g><path style="opacity:1" fill="#a8a67a" d="M 221.5,306.5 C 222.167,306.5 222.833,306.5 223.5,306.5C 224.873,306.343 226.207,306.51 227.5,307C 225.406,308.352 223.073,308.852 220.5,308.5C 220.5,311.833 220.5,315.167 220.5,318.5C 219.5,318.5 218.5,318.5 217.5,318.5C 217.5,314.5 217.5,310.5 217.5,306.5C 218.833,306.5 220.167,306.5 221.5,306.5 Z"/></g>
<g><path style="opacity:1" fill="#a9a485" d="M 232.5,305.5 C 241.622,306.244 243.622,310.411 238.5,318C 234.495,319.098 230.995,318.265 228,315.5C 227.077,311.017 228.577,307.683 232.5,305.5 Z"/></g>
<g><path style="opacity:1" fill="#f9f4d7" d="M 232.5,307.5 C 237.674,307.835 239.341,310.501 237.5,315.5C 235.878,317.439 234.044,317.772 232,316.5C 231.264,313.408 231.431,310.408 232.5,307.5 Z"/></g>
<g><path style="opacity:1" fill="#fbf8e3" d="M 287.5,306.5 C 284.167,306.5 280.833,306.5 277.5,306.5C 277.664,309.187 277.497,311.854 277,314.5C 275.175,316.48 274.341,318.813 274.5,321.5C 275.5,321.5 276.5,321.5 277.5,321.5C 277.5,320.5 277.5,319.5 277.5,318.5C 280.833,318.5 284.167,318.5 287.5,318.5C 287.5,319.5 287.5,320.5 287.5,321.5C 288.5,321.5 289.5,321.5 290.5,321.5C 289.357,317.256 288.69,312.923 288.5,308.5C 289.833,308.5 291.167,308.5 292.5,308.5C 292.5,311.833 292.5,315.167 292.5,318.5C 293.5,318.5 294.5,318.5 295.5,318.5C 295.5,316.5 295.5,314.5 295.5,312.5C 297.735,312.205 299.735,312.539 301.5,313.5C 300.167,313.5 298.833,313.5 297.5,313.5C 297.232,316.119 297.565,318.619 298.5,321C 296.956,321.29 295.623,321.956 294.5,323C 288.306,323.627 281.973,324.127 275.5,324.5C 272.488,324.821 271.155,323.488 271.5,320.5C 267.785,320.577 264.119,320.244 260.5,319.5C 260.5,318.5 260.5,317.5 260.5,316.5C 264.335,319.125 268.168,319.125 272,316.5C 274.511,312.2 273.678,308.867 269.5,306.5C 269.5,305.5 269.5,304.5 269.5,303.5C 270.833,303.5 272.167,303.5 273.5,303.5C 273.116,305.665 273.783,307.332 275.5,308.5C 276.452,306.955 276.785,305.288 276.5,303.5C 280.315,304.105 283.982,304.105 287.5,303.5C 287.5,304.5 287.5,305.5 287.5,306.5 Z"/></g>
<g><path style="opacity:1" fill="#fdf8db" d="M 280.5,308.5 C 281.833,308.5 283.167,308.5 284.5,308.5C 284.5,311.167 284.5,313.833 284.5,316.5C 282.712,316.785 281.045,316.452 279.5,315.5C 280.374,313.253 280.708,310.92 280.5,308.5 Z"/></g>
<g><path style="opacity:1" fill="#2d4d4b" d="M 135.5,328.5 C 287.833,328.5 440.167,328.5 592.5,328.5C 592.5,331.833 592.5,335.167 592.5,338.5C 441.167,338.5 289.833,338.5 138.5,338.5C 138.825,336.868 139.825,335.868 141.5,335.5C 291.418,337.494 441.418,338.16 591.5,337.5C 591.917,334.921 591.25,332.754 589.5,331C 483.501,330.5 377.501,330.333 271.5,330.5C 267.304,330.923 263.137,331.59 259,332.5C 256.51,331.664 254.01,330.998 251.5,330.5C 212.019,330.564 172.853,330.564 134,330.5C 133.506,332.134 133.34,333.801 133.5,335.5C 132.5,335.5 131.5,335.5 130.5,335.5C 130.5,333.167 130.5,330.833 130.5,328.5C 132.167,328.5 133.833,328.5 135.5,328.5 Z"/></g>
<g><path style="opacity:1" fill="#1f524f" d="M 251.5,330.5 C 251.5,332.167 251.5,333.833 251.5,335.5C 264.524,335.777 277.524,335.444 290.5,334.5C 389.192,335.162 487.859,335.829 586.5,336.5C 587.5,336 588.5,335.5 589.5,335C 587.5,334.333 585.5,333.667 583.5,333C 479.162,333.165 375.162,332.332 271.5,330.5C 377.501,330.333 483.501,330.5 589.5,331C 591.25,332.754 591.917,334.921 591.5,337.5C 441.418,338.16 291.418,337.494 141.5,335.5C 139.825,335.868 138.825,336.868 138.5,338.5C 135.833,338.5 133.167,338.5 130.5,338.5C 130.5,337.5 130.5,336.5 130.5,335.5C 131.5,335.5 132.5,335.5 133.5,335.5C 133.34,333.801 133.506,332.134 134,330.5C 172.853,330.564 212.019,330.564 251.5,330.5 Z"/></g>
<g><path style="opacity:1" fill="#18564f" d="M 251.5,330.5 C 254.01,330.998 256.51,331.664 259,332.5C 263.137,331.59 267.304,330.923 271.5,330.5C 375.162,332.332 479.162,333.165 583.5,333C 585.5,333.667 587.5,334.333 589.5,335C 588.5,335.5 587.5,336 586.5,336.5C 487.859,335.829 389.192,335.162 290.5,334.5C 277.524,335.444 264.524,335.777 251.5,335.5C 251.5,333.833 251.5,332.167 251.5,330.5 Z"/></g>
<g><path style="opacity:1" fill="#3d5d5a" d="M 637.5,346.5 C 637.5,349.833 637.5,353.167 637.5,356.5C 636.167,356.5 634.833,356.5 633.5,356.5C 450.833,356.5 268.167,356.5 85.5,356.5C 85.5,356.167 85.5,355.833 85.5,355.5C 85.5,354.167 85.5,352.833 85.5,351.5C 88.8333,351.5 92.1667,351.5 95.5,351.5C 95.5,352.5 95.5,353.5 95.5,354.5C 274.167,354.667 452.834,354.5 631.5,354C 634.373,352.439 635.039,350.272 633.5,347.5C 634.708,346.766 636.041,346.433 637.5,346.5 Z"/></g>
<g><path style="opacity:1" fill="#eef9f9" d="M 65.5,362.5 C 65.185,366.371 65.5184,370.038 66.5,373.5C 263.167,373.5 459.833,373.5 656.5,373.5C 656.5,370.167 656.5,366.833 656.5,363.5C 656.5,362.833 656.167,362.5 655.5,362.5C 466.334,361.667 277,361.167 87.5,361C 88.5,360 89.5,359 90.5,358C 271.667,357.833 452.667,357.333 633.5,356.5C 634.833,356.5 636.167,356.5 637.5,356.5C 637.5,353.167 637.5,349.833 637.5,346.5C 545.667,345.833 453.667,345.5 361.5,345.5C 269.164,345.5 177.164,346.167 85.5,347.5C 85.5,348.5 85.5,349.5 85.5,350.5C 85.5,350.833 85.5,351.167 85.5,351.5C 85.5,352.833 85.5,354.167 85.5,355.5C 84.8826,355.389 84.3826,355.056 84,354.5C 82.8558,351.076 82.0224,347.909 81.5,345C 82.1667,344.667 82.8333,344.333 83.5,344C 82.1667,343.333 82.1667,342.667 83.5,342C 85.1012,341.727 86.6012,341.227 88,340.5C 89.4194,341.46 90.9194,342.293 92.5,343C 104.409,343.821 116.243,343.654 128,342.5C 129.739,343.894 131.739,344.561 134,344.5C 284.488,343.672 434.988,343.172 585.5,343C 586.167,342.333 586.833,341.667 587.5,341C 436.167,340.667 284.833,340.333 133.5,340C 132.263,339.768 131.263,339.268 130.5,338.5C 133.167,338.5 135.833,338.5 138.5,338.5C 289.833,338.5 441.167,338.5 592.5,338.5C 592.5,335.167 592.5,331.833 592.5,328.5C 440.167,328.5 287.833,328.5 135.5,328.5C 187.782,327.145 240.116,326.645 292.5,327C 295.171,325.456 298.004,324.29 301,323.5C 301.667,324.167 302.333,324.833 303,325.5C 329.425,325.113 355.592,324.779 381.5,324.5C 382.192,325.025 382.692,325.692 383,326.5C 391.431,325.685 399.931,325.018 408.5,324.5C 417.707,324.968 426.873,324.968 436,324.5C 440.26,324.539 444.26,325.206 448,326.5C 451.435,325.387 454.935,325.387 458.5,326.5C 460.754,326.069 462.921,325.403 465,324.5C 475.822,324.644 486.655,324.644 497.5,324.5C 501.762,324.586 505.929,325.252 510,326.5C 511.784,325.691 513.617,325.024 515.5,324.5C 520.6,324.236 525.767,324.57 531,325.5C 534.537,325.026 538.037,324.359 541.5,323.5C 553.186,324.146 564.853,324.813 576.5,325.5C 578.5,324.833 580.5,324.167 582.5,323.5C 585.243,325.332 588.243,326.332 591.5,326.5C 591.5,325.5 591.5,324.5 591.5,323.5C 592.5,323.5 593.5,323.5 594.5,323.5C 594.682,325.591 594.348,327.591 593.5,329.5C 594.355,330.293 595.189,329.96 596,328.5C 598.734,331.407 598.901,334.573 596.5,338C 597.376,339.586 598.376,341.086 599.5,342.5C 604.167,342.833 608.833,343.167 613.5,343.5C 619.959,343.712 626.293,343.045 632.5,341.5C 634.618,342.946 636.951,343.613 639.5,343.5C 640.074,348.648 639.407,353.482 637.5,358C 638.167,358.667 638.833,359.333 639.5,360C 644.688,360.002 649.521,360.169 654,360.5C 655.232,357.7 655.899,354.7 656,351.5C 656.182,354.226 656.682,356.893 657.5,359.5C 658.985,360.821 660.318,362.321 661.5,364C 661.108,365.011 660.441,365.511 659.5,365.5C 660.025,366.192 660.692,366.692 661.5,367C 661.5,368.333 661.5,369.667 661.5,371C 660.833,371.333 660.167,371.667 659.5,372C 660.517,373.049 660.684,374.216 660,375.5C 657.384,375.403 654.551,375.069 651.5,374.5C 459.844,375.329 268.177,375.829 76.5,376C 68.6101,379.563 64.2768,377.23 63.5,369C 63.5332,366.39 64.1999,364.223 65.5,362.5 Z"/></g>
<g><path style="opacity:1" fill="#20534c" d="M 628.5,346.5 C 630.216,346.629 631.883,346.962 633.5,347.5C 635.039,350.272 634.373,352.439 631.5,354C 452.834,354.5 274.167,354.667 95.5,354.5C 95.5,353.5 95.5,352.5 95.5,351.5C 92.1667,351.5 88.8333,351.5 85.5,351.5C 85.5,351.167 85.5,350.833 85.5,350.5C 86.5236,349.862 87.5236,349.195 88.5,348.5C 101.525,348.878 114.525,348.878 127.5,348.5C 127.5,349.5 127.5,350.5 127.5,351.5C 129.604,351.799 131.604,351.466 133.5,350.5C 130.924,349.117 131.258,348.283 134.5,348C 137.221,347.398 139.887,347.565 142.5,348.5C 142.5,349.5 142.5,350.5 142.5,351.5C 292.173,351.191 441.839,351.525 591.5,352.5C 591.5,351.5 591.5,350.5 591.5,349.5C 588.482,349.665 585.482,349.498 582.5,349C 583.056,348.617 583.389,348.117 583.5,347.5C 598.676,347.829 613.676,347.496 628.5,346.5 Z"/></g>
<g><path style="opacity:1" fill="#1b5353" d="M 583.5,347.5 C 583.389,348.117 583.056,348.617 582.5,349C 585.482,349.498 588.482,349.665 591.5,349.5C 591.5,350.5 591.5,351.5 591.5,352.5C 441.839,351.525 292.173,351.191 142.5,351.5C 142.5,350.5 142.5,349.5 142.5,348.5C 289.43,347.502 436.43,347.168 583.5,347.5 Z"/></g>
<g><path style="opacity:1" fill="#244f4c" d="M 628.5,346.5 C 613.676,347.496 598.676,347.829 583.5,347.5C 436.43,347.168 289.43,347.502 142.5,348.5C 139.887,347.565 137.221,347.398 134.5,348C 131.258,348.283 130.924,349.117 133.5,350.5C 131.604,351.466 129.604,351.799 127.5,351.5C 127.5,350.5 127.5,349.5 127.5,348.5C 114.525,348.878 101.525,348.878 88.5,348.5C 87.5236,349.195 86.5236,349.862 85.5,350.5C 85.5,349.5 85.5,348.5 85.5,347.5C 266.46,346.503 447.46,346.169 628.5,346.5 Z"/></g>
<g><path style="opacity:1" fill="#395855" d="M 637.5,346.5 C 636.041,346.433 634.708,346.766 633.5,347.5C 631.883,346.962 630.216,346.629 628.5,346.5C 447.46,346.169 266.46,346.503 85.5,347.5C 177.164,346.167 269.164,345.5 361.5,345.5C 453.667,345.5 545.667,345.833 637.5,346.5 Z"/></g>
<g><path style="opacity:1" fill="#ecfdfe" d="M 85.5,356.5 C 268.167,356.5 450.833,356.5 633.5,356.5C 452.667,357.333 271.667,357.833 90.5,358C 89.5,359 88.5,360 87.5,361C 277,361.167 466.334,361.667 655.5,362.5C 458.833,362.5 262.167,362.5 65.5,362.5C 71.6782,360.884 78.0116,360.051 84.5,360C 85.3366,358.989 85.67,357.822 85.5,356.5 Z"/></g>
<g><path style="opacity:1" fill="#658181" d="M 65.5,362.5 C 262.167,362.5 458.833,362.5 655.5,362.5C 656.167,362.5 656.5,362.833 656.5,363.5C 462.833,363.5 269.167,363.5 75.5,363.5C 72.5,363.5 69.5,363.5 66.5,363.5C 66.5,365.5 66.5,367.5 66.5,369.5C 66.5,370.833 66.5,372.167 66.5,373.5C 65.5184,370.038 65.185,366.371 65.5,362.5 Z"/></g>
<g><path style="opacity:1" fill="#21524e" d="M 75.5,363.5 C 268.666,364.5 461.999,364.833 655.5,364.5C 655.5,367.167 655.5,369.833 655.5,372.5C 459.833,372.667 264.166,372.5 68.5,372C 67.9341,371.005 67.2674,370.172 66.5,369.5C 66.5,367.5 66.5,365.5 66.5,363.5C 69.5,363.5 72.5,363.5 75.5,363.5 Z"/></g>
<g><path style="opacity:1" fill="#1b564c" d="M 628.5,366.5 C 632.064,367.423 635.731,367.756 639.5,367.5C 639.5,368.5 639.5,369.5 639.5,370.5C 449.5,370.667 259.5,370.5 69.5,370C 70.8333,369.333 70.8333,368.667 69.5,368C 256,367.833 442.334,367.333 628.5,366.5 Z"/></g>
<g><path style="opacity:1" fill="#2a4847" d="M 75.5,363.5 C 269.167,363.5 462.833,363.5 656.5,363.5C 656.5,366.833 656.5,370.167 656.5,373.5C 459.833,373.5 263.167,373.5 66.5,373.5C 66.5,372.167 66.5,370.833 66.5,369.5C 67.2674,370.172 67.9341,371.005 68.5,372C 264.166,372.5 459.833,372.667 655.5,372.5C 655.5,369.833 655.5,367.167 655.5,364.5C 461.999,364.833 268.666,364.5 75.5,363.5 Z"/></g>
</svg>
